<svg width="896" height="61" viewBox="0 0 896 61" fill="none" xmlns="http://www.w3.org/2000/svg">
<path d="M0 0.243726C2.75521 -0.313566 5.52604 0.1656 8.21875 0.868726C11.8802 1.92602 15.7135 1.44685 19.4792 1.56664C21.3594 5.37393 25.8229 1.82706 28.0521 4.65518C33.0208 3.19685 38.1927 3.77498 43.2604 4.38435C45.2865 5.73852 47.7031 5.96768 50.0833 6.26456C59.4219 5.38435 68.8177 6.43122 78.1823 6.6656C83.7708 6.18643 89.3854 6.37393 95.0052 6.17602C98.5365 6.27498 102.063 5.80622 105.625 5.89477C109.141 6.30622 111.766 3.05623 115.24 3.15518C122.87 3.30623 130.557 2.74373 138.156 3.77498C143.526 4.55622 148.948 3.87914 154.359 4.24373C160.172 0.472891 167.297 2.69685 173.781 1.95727C179.422 1.23852 184.682 3.54581 190.203 4.08227C199.047 3.60831 208.01 5.07706 216.875 3.98331C223.891 5.03539 230.875 2.33748 237.885 3.46768C243.734 4.24373 249.656 3.27498 255.521 4.00414C265.057 3.58748 274.63 3.57706 284.156 4.19685C304.016 3.83227 323.927 4.82706 343.797 3.75935C352.859 5.11873 362.214 5.29581 371.208 3.31664C375.714 5.73331 381.083 4.19685 385.99 4.45206C387.495 4.69685 389.026 4.59789 390.547 4.17602C396.375 4.17602 402.464 4.65518 408.109 3.09268C408.667 3.17602 409.771 3.33748 410.323 3.42602C412.031 3.46248 413.828 3.13956 415.505 3.79581C419.359 4.90518 423.391 3.77498 427.339 3.95727C433.661 4.4156 439.969 3.95727 446.219 2.94685C448.828 2.82706 451.458 3.09268 454.057 3.53539C462.219 4.40518 470.38 2.49893 478.542 3.52498C480.328 3.50414 482.125 3.50414 483.943 3.48331C492.276 4.6656 500.583 2.04581 508.896 3.48331C509.156 3.46768 509.672 3.42602 509.938 3.4156C512.844 3.30622 515.771 3.07706 518.703 3.34789C520.823 3.11873 522.969 3.11873 525.115 3.46768C525.349 3.46248 525.833 3.42602 526.078 3.40518C529.302 4.10831 532.573 3.1656 535.839 3.31664C540.714 3.11873 545.594 3.13956 550.474 3.32706C555.151 3.73331 559.859 2.6656 564.563 3.34789C568.099 4.05623 571.646 2.84268 575.224 3.34789C581.661 4.20727 588.193 3.31664 594.667 3.96768C602.198 3.4156 609.724 4.55622 617.281 4.20727C629.87 4.43643 642.469 4.00414 655.068 4.45727C660.276 3.64477 665.667 5.96768 670.693 3.71248V4.56664C685.964 5.71768 701.302 6.55623 716.62 6.63435C718.224 6.88435 719.849 7.11873 721.5 7.44685C739.104 7.46768 756.578 9.55623 774.125 10.525C784.167 11.3531 794.203 11.9156 804.26 12.6344C822.568 14.1031 841.016 15.4469 859.156 17.6552C864.036 17.9521 868.875 19.051 873.802 18.9937C875.073 17.9833 876.349 16.9729 877.646 15.9833C878.359 16.0458 879.813 16.2021 880.536 16.2646C880.755 17.8427 880.458 19.7125 881.281 21.2125C883.115 23.1344 885.688 24.6135 886.266 27.4781C886.771 30.1812 889.443 31.1812 891.568 32.4469C891.438 33.0406 891.188 34.2385 891.057 34.8375C893.484 36.9677 893.828 40.176 894.135 43.2177C891.74 45.8479 894.563 48.5666 893.849 51.5458L895.01 51.7177C894.141 54.4052 892.682 56.8323 891.38 59.3166C886.911 61.7021 882.01 60.0146 877.297 59.8062C856.615 57.7646 835.979 54.8531 815.271 53.4052C809.24 53.3479 803.339 51.6969 797.302 52.1135C786.547 51.1291 775.781 50.676 765.031 49.7646C753.708 48.2958 742.266 48.525 730.911 47.4937C724.88 47.4989 718.927 45.8583 712.917 46.676C695.589 46.0666 678.297 44.2593 660.927 44.525C643.495 44.6656 626.094 44.0198 608.672 43.7281C598.141 43.0666 587.552 43.8271 577.031 43.0666C570.927 42.7958 564.786 42.7281 558.703 43.1083C549.156 42.6083 539.573 42.9885 530.026 42.9C519.125 42.1604 508.182 43.5354 497.271 42.6187C494.052 42.9781 490.797 43.0458 487.625 42.4573C483.688 42.3791 479.797 43.4937 475.891 42.9989C471.354 42.5875 466.849 43.5406 462.333 43.2281C457.823 43.6396 453.339 42.6083 448.828 42.8687C445.266 42.6968 441.74 43.4156 438.198 43.2177C425.391 43.7906 412.573 43.1708 399.813 43.1239C389.266 43.2906 378.646 43.8479 368.094 43.15C364.672 43.6656 361.219 43.4573 357.828 43.0875C349.073 43.9052 340.313 42.5302 331.557 43.2385C325.854 43.7073 320.151 43.4156 314.464 43.1083C309.823 43.7385 305.208 42.801 300.573 42.9573C290 42.8166 279.417 43.1239 268.849 42.65C259.536 42.9677 250.188 41.7489 240.896 42.7385C231.219 41.6396 221.464 43.15 211.776 42.4312C198.495 43.5562 185.224 41.9312 171.948 42.1083C160.63 43.0875 149.26 41.6864 137.974 42.9C136.177 42.775 134.552 41.9052 132.786 41.8479C120.813 41.5406 108.87 41.9781 96.9323 42.3271C93.3177 42.4469 89.724 41.8271 86.1615 41.3687C81.9844 41.3062 77.8177 41.4677 73.6667 41.1656C69.1094 39.2281 64.1354 39.6969 59.3698 38.8896C49.6563 37.7073 40.4375 34.2177 30.75 32.9885C24.4583 31.1083 18.3542 28.5094 12.875 24.8791C12.1146 23.3844 11.3594 21.9521 11.0208 20.3427C9.16146 18.4729 8.57812 15.8739 8.17708 13.3844C5.88021 12.8219 3.97917 11.3323 5.57813 8.89477C4.90104 7.90518 4.19271 6.90518 3.54688 5.96768C4.44271 5.85831 6.21875 5.65518 7.11458 5.54581C7.08333 5.32706 7.03125 4.9156 6.99479 4.69685C3.67188 5.69685 1.89583 2.30622 0 0.243726Z" fill="#F4CA5E"/>
</svg>
